<?xml version="1.0" encoding="utf-8"?>
<!-- Generator: Adobe Illustrator 28.0.0, SVG Export Plug-In . SVG Version: 6.00 Build 0)  -->
<svg version="1.0"
	 id="onepiece" xmlns:sodipodi="http://sodipodi.sourceforge.net/DTD/sodipodi-0.dtd" xmlns:inkscape="http://www.inkscape.org/namespaces/inkscape" xmlns:svg="http://www.w3.org/2000/svg" xmlns:rdf="http://www.w3.org/1999/02/22-rdf-syntax-ns#" xmlns:dc="http://purl.org/dc/elements/1.1/" xmlns:cc="http://creativecommons.org/ns#" inkscape:output_extension="org.inkscape.output.svg.inkscape" inkscape:version="0.46" sodipodi:docname="One_Piece_Logo.svg" sodipodi:version="0.32"
	 xmlns="http://www.w3.org/2000/svg" xmlns:xlink="http://www.w3.org/1999/xlink" x="0px" y="0px" viewBox="0 0 774.32 273.22"
	 style="enable-background:new 0 0 774.32 273.22;" xml:space="preserve">
<style type="text/css">
	
		.st0{fill:url(#rect2178_00000115475299038035833390000009961355557890770852_);stroke:#000000;stroke-width:3.8205;stroke-linejoin:round;}
	.st1{fill:#FFFFFF;stroke:#000000;stroke-width:3.8205;}
	.st2{fill:#000D82;stroke:#000000;stroke-width:1.9103;}
	.st3{fill:#C04D00;fill-opacity:0.9982;stroke:#000000;stroke-width:3.8205;}
	.st4{fill:none;stroke:#000000;stroke-width:3.8205;}
	
		.st5{fill:url(#path3430_00000172433174000940640050000006150240865237001129_);stroke:#000000;stroke-width:3.8205;stroke-linecap:round;stroke-linejoin:round;}
	.st6{fill:#E30C0C;stroke:#000000;stroke-width:3.8205;stroke-linejoin:round;}
	.st7{fill:#803300;stroke:#000000;stroke-width:3.8205;}
	.st8{fill:#803300;stroke:#000000;stroke-width:3.9567;}
	.st9{fill:#9D3F00;stroke:#000000;stroke-width:3.8205;}
	.st10{fill:none;stroke:#000000;stroke-width:3.8205;stroke-linejoin:round;}
	.st11{fill:none;stroke:#000000;stroke-width:4.1005;stroke-linejoin:round;}
	.st12{fill:none;stroke:#000000;stroke-width:3.5082;stroke-linejoin:round;}
	.st13{fill:none;stroke:#000000;stroke-width:4.266;stroke-linejoin:round;}
	.st14{fill:#C04D00;fill-opacity:0.9982;stroke:#000000;stroke-width:3.8205;stroke-linejoin:round;}
	.st15{fill:#9D3F00;fill-opacity:0.9957;stroke:#000000;stroke-width:3.8205;}
	.st16{fill:#9D3F00;fill-opacity:0.9957;stroke:#000000;stroke-width:3.8939;}
	.st17{fill:#FFE01F;stroke:#000000;stroke-width:3.8205;stroke-linejoin:round;}
	.st18{fill:#EB0000;stroke:#000000;stroke-width:3.8205;}
	.st19{fill:#FFE01F;stroke:#000000;stroke-width:3.8205;}
	.st20{fill:#FFFFFF;stroke:#000000;stroke-width:3.0564;}
	.st21{fill-opacity:0.9915;}
	.st22{font-family:'ArialMT';}
	.st23{font-size:12.2256px;}
</style>
<sodipodi:namedview  bordercolor="#666666" borderopacity="1.0" gridtolerance="10.0" guidetolerance="10.0" id="base" inkscape:pageopacity="0.0" inkscape:pageshadow="2" inkscape:window-height="480" inkscape:window-width="640" objecttolerance="10.0" pagecolor="#ffffff" showgrid="false">
	</sodipodi:namedview>
<defs>
	
		<inkscape:perspective  id="perspective117" inkscape:persp3d-origin="380 : 92.74 : 1" inkscape:vp_x="0 : 139.11 : 1" inkscape:vp_y="0 : 1000 : 0" inkscape:vp_z="760 : 139.11 : 1" sodipodi:type="inkscape:persp3d">
		</inkscape:perspective>
</defs>
<g id="g2273" transform="matrix(2.08289, 0, 0, 2.08289, -39.4411, -436.35)">
	<g id="g2275">
		<g id="g2732" transform="matrix(0.405405, 0, 0, 0.405405, 12.2323, 203.044)">
			
				<linearGradient id="rect2178_00000016034487478528323230000007241681592769142935_" gradientUnits="userSpaceOnUse" x1="560.3159" y1="172.4847" x2="560.3159" y2="-15.5114" gradientTransform="matrix(0.8444 0 0 -0.8444 2.2887 233.2325)">
				<stop  offset="0" style="stop-color:#4ABFFF"/>
				<stop  offset="1" style="stop-color:#0000CB"/>
			</linearGradient>
			
				<path id="rect2178" style="fill:url(#rect2178_00000016034487478528323230000007241681592769142935_);stroke:#000000;stroke-width:3.8205;stroke-linejoin:round;" d="
				M599.25,56.02c-2.96,0-5.35,2.39-5.35,5.35v0.41c0,2.96,2.39,5.35,5.35,5.35h196.06c2.96,0,5.35-2.39,5.35-5.35v-0.41
				c0-2.96-2.38-5.35-5.35-5.35H599.25z M158.91,56.21c-2.96,0-5.35,2.39-5.35,5.35v0.02c0,2.96,2.39,5.35,5.35,5.35h251.22
				c2.96,0,5.35-2.39,5.35-5.35v-0.02c0-2.96-2.39-5.35-5.35-5.35H158.91z M155.48,251.39c-2.96,0-5.35,2.02-5.35,4.54
				c0,2.51,2.38,4.54,5.35,4.54h639.89c2.96,0,5.35-2.03,5.35-4.54c0-2.51-2.39-4.54-5.35-4.54H155.48z"/>
			<path id="path3892" class="st1" d="M312.57,57.31c-7.14,0.36-14.2,7.43-6.42,19.08l-29.08,28.32l10.77,13.04l28.89-29.66
				c19.02,10.83,26.36-19,5.68-18.48C323.73,60.8,318.12,57.03,312.57,57.31z M148.62,59.2c-5.13,0.28-9.84,4.12-8.62,12.3
				c-20.68-0.52-13.36,29.31,5.66,18.48l28.89,29.66l10.77-13.04l-29.08-28.32C164.45,65.97,156.11,58.79,148.62,59.2z
				 M173.79,207.96l-28.87,29.63c-19.02-10.83-26.36,19.02-5.68,18.5c-3.01,20.13,30.09,13.91,16.26-6.8l29.06-28.32L173.79,207.96z
				 M287.83,209.46l-10.77,13.04l29.08,28.32c-13.83,20.72,19.27,26.91,16.26,6.78c20.68,0.52,13.33-29.33-5.68-18.51L287.83,209.46
				z"/>
			<path id="path3219" class="st2" d="M480.56,46.85h8.01c0.04,1.19,0.04,2.63,0,3.75c0.21,17.05-9.16,27.41-30.97,26.96v-7.74
				c13.83-0.3,22.91-4.31,22.96-19.22C480.6,49.42,480.62,48.17,480.56,46.85z"/>
			<path id="path3221" class="st2" d="M490.58,42.84v27.91c0.03,3.76,3.59,7.04,7.07,7.07h23.07v-7.4h-19.84
				c-1.32,0.01-1.7-0.81-1.62-2.89V56.86h22.14v-8.57h-3.06c-0.5,0.96-1.49,1.62-2.65,1.62c-1.16,0-2.15-0.66-2.65-1.62h-13.78
				v-5.44H490.58z"/>
			<path id="rect3232" class="st2" d="M521.74,53.35v9.07h31.61v-9.07H521.74z"/>
			<path id="path3223" class="st2" d="M515.68,41.57c-2.91,0-5.28,2.4-5.28,5.35c0,2.95,2.37,5.32,5.28,5.32
				c2.91,0,5.28-2.38,5.28-5.32C520.95,43.98,518.59,41.57,515.68,41.57z M515.68,43.87c1.66,0,3.01,1.37,3.01,3.06
				c0,1.68-1.35,3.06-3.01,3.06c-1.66,0-3.01-1.37-3.01-3.06C512.67,45.24,514.02,43.87,515.68,43.87z"/>
			<path id="path2240" class="st2" d="M423.56,42.58v15.75h8.01v-7.48h14.28c0.06,18.12-11.62,19.22-20.82,19.22v8.01
				c6.05,0,29.1,0.58,28.97-27.23c-0.01-2.79,0-5.48,0-8.28H423.56z"/>
			<path id="path3217" class="st2" d="M456,42.58v7.74h18.69c0-2.79,0-4.73,0-7.74H456z"/>
			<path id="path3237" class="st2" d="M556,45.06h24.26v7.55c0.09,3.85-0.97,6.75-2.27,9.53c2.17,4.05,4.78,6.74,7.46,8.02v8.12
				c-3.99-1.6-8.02-3.25-11.23-10.01c-5.69,7.49-12.88,10.08-20.58,9.53v-7.74c1.34-0.04,1.22,0.02,3,0
				c4.18,0,15.95-8.79,15.22-17.46H556V45.06z"/>
			<path id="path3567" class="st3" d="M339.99,250.56c3.75-2.86,48.2-26.02,78.49,0c20.78,17.84,37.11,10.41,37.11,10.41l22.96-0.53
				c-15.03,9.51-32.91,22.93-69.15-3.74c-13.27-9.77-30.98-13.24-49.13-6.14C358.7,250.56,339.99,250.56,339.99,250.56z"/>
			<path id="path3569" class="st4" d="M356.01,243.62"/>
			<path id="path3571" class="st4" d="M356.28,243.35c-0.34,0.26,0.19-0.97-0.27,1.33"/>
			<path id="path3573" class="st4" d="M356.01,250.56l0.53-6.68"/>
			<path id="path3575" class="st4" d="M365.36,239.88l0.8,9.61"/>
			<path id="path3577" class="st4" d="M375.77,247.62l0.53-8.81"/>
			<path id="path3579" class="st4" d="M385.12,238.55l-0.8,8.54"/>
			<path id="path3581" class="st4" d="M392.06,248.96"/>
			<path id="path3583" class="st4" d="M397.93,239.61l-5.61,8.54"/>
			<path id="path3585" class="st4" d="M400.07,250.56l7.48-6.14"/>
			<path id="path3587" class="st4" d="M416.09,249.22l-8.01,5.34"/>
			<path id="path3589" class="st4" d="M418.76,262.58l8.54-6.68"/>
			<path id="path3591" class="st4" d="M443.32,261.77"/>
			<path id="path3593" class="st4" d="M436.11,269.52l6.41-7.21"/>
			<path id="path3595" class="st4" d="M449.73,261.77v10.95"/>
			<path id="path3597" class="st4" d="M460.67,269.25"/>
			<path id="path3599" class="st4" d="M460.14,260.44l-0.53,8.54"/>
			
				<linearGradient id="path3430_00000049213717051374223560000015824147152264970918_" gradientUnits="userSpaceOnUse" x1="555.0673" y1="170.0553" x2="555.0673" y2="-19.7938" gradientTransform="matrix(0.8444 0 0 -0.8444 2.2887 233.2325)">
				<stop  offset="0" style="stop-color:#4ABFFF"/>
				<stop  offset="1" style="stop-color:#0000CB"/>
			</linearGradient>
			
				<path id="path3430" style="fill:url(#path3430_00000049213717051374223560000015824147152264970918_);stroke:#000000;stroke-width:3.8205;stroke-linecap:round;stroke-linejoin:round;" d="
				M774.68,77.38l4.82,5.61c-80.59,18.79-85.95,133.13-0.55,155.93l-3.73,6.66l21.09-5.85l-14.69-14.16l-0.81,7.21
				c-37.63-16.29-45.66-56.92-45.66-69.41h19.51c0,0,0,7.6,0,10.41c0,4.23,6.66,4.39,6.66,0c0-3.29,0-9.89,0-9.89h6.14
				c1.94,10.72,15.34,15.27,21.96,7.58c2.22-2.58,3.68-6.54,3.68-12.12c0-6.05-1.67-10.31-4.16-13c-6.73-7.28-19.45-3.03-21.2,8.46
				h-6.42c0,0,0-5.75,0-9.34c0-4.98-6.66-4.46-6.66,0c0,3.08,0,9.07,0,9.07h-19.51c3.74-31.55,22.26-50.8,47.28-64.62v7.47
				l13.06-14.42L774.68,77.38z M230.57,79.79c-46.87,0-84.91,38.05-84.91,84.91c0,46.87,38.05,84.89,84.91,84.89
				c46.87,0,84.91-38.02,84.91-84.89C315.48,117.84,277.43,79.79,230.57,79.79z M316.46,84.14c2.49,2.74,5.4,5.09,5.66,11.32
				c1.89,45.33,3.79,89.94-3.39,137.44c-0.59,3.88-4.1,7.38-7.19,7.93h32.86c-2.61-13.97-1.63-27.94,0.76-41.91
				c3,13.97,6.82,27.94,12.82,41.91h21.16c-5.85-64.24-1.72-150.16,2.27-156.69h-28.32c2.43,18.97-0.26,25.36-1.53,35.1
				c-2.89-9.66-5.35-16.37-5.66-35.1H316.46z M383.29,84.14c7.5,5.82,7.55,35.12,7.55,75.5c0,39.16,2.19,76.51-11.34,81.19h67.98
				v-28.39c-11.33,15.41-39.47,8.82-39.47-10.12c0-19.59,0.19-38.9,0.19-38.9c14.83-3.71,23.17,7.34,26.05,12.85l-0.38-33.6
				c-6.14,11.86-19.99,14.56-26.05,14.33c0,0,0.24-30.97,0.38-37.37c0.54-24.72,36.79-24.91,39.66-4.54V84.14H383.29z M467.49,84.14
				c1.67,0.74,3.11,5.57,3.68,10.97c1.51,14.2,1.6,38.32,1.6,67.18c0,27.74-1.8,53.62-3.69,67.98c-0.83,6.3-3.29,8.43-5.36,10.56
				h35.13c-8.59-2.4-7.64-38.29-7.36-43.6c12.95,0,35.7-5.65,35.7-22.68c0-20.42,0.33-36.46,0.33-59.46
				c0-17.52-8.82-30.95-26.19-30.95C485.29,84.14,467.49,84.14,467.49,84.14z M584.06,84.14c7.49,5.82,7.54,35.12,7.54,75.5
				c0,39.16,2.22,76.51-11.32,81.19h67.96v-28.39c-11.33,15.41-39.47,8.82-39.47-10.12v-38.9c13.85,0,23.39,8.47,26.27,13.98v-34.73
				c-6.14,11.86-13.96,14.33-26.27,14.33v-37.37c0-24.73,36.98-24.91,39.85-4.54V84.14H584.06z M683.54,84.52
				c-15.58,0.23-31.14,10.23-31.14,31.85v87.04c0,56.37,62.49,42.38,62.49,6.14v-33.09h-26.98c3.5,6.42,3.75,19.99,3.75,25.62
				c0,11.61-17.1,14.46-17.1-2.41v-75.81c-0.27-17.74,16.83-14.59,16.83-8.02c0,6.41,2.52,22.2-2.94,26.72h26.43v-31.26
				C714.76,93.82,699.12,84.29,683.54,84.52z M491.48,100.61c3.94,0,17.56,1.99,17.56,12.56c0,16.93,0,31.84,0,50.19
				c0,17.83-13.57,16.55-17.56,16.55V100.61z M779.51,152.69c2.79,0,5.04,2.88,5.04,6.4c0,3.52-2.25,6.37-5.04,6.37
				c-2.79,0-5.06-2.85-5.06-6.37C774.44,155.57,776.72,152.69,779.51,152.69z"/>
			<path id="path3256" class="st6" d="M558.66,82.62c-5.55,0-10.31,3.58-12.32,8.64l-14.21,3.8l13.28,3.24
				c0.58,5.07,3.73,9.3,8.05,11.22v3.61c-13.33,2.52-23.4,14.12-23.4,28.01c0,8.75,4,16.59,10.29,21.82l-5.73,7.66l4.92,0.48
				l-4.73,7.54h9.1l-5.92,20.82l8.52-0.05l1.86,31.4c-15.57-0.36-27.3,22.49,10.36,2.44c15.12,15.21,28.94,8.44,9.46-1.89
				l1.98-32.04l7.45-0.05l-4.25-20.63h8l-4.73-7.57l4.73-0.45l-5.04-6.73c6.97-5.21,11.49-13.47,11.49-22.76
				c0-13.88-10.08-25.45-23.4-27.98v-3.92c3.94-1.99,6.81-5.92,7.45-10.63l14.26-4.11l-15.07-3.08
				C569.08,86.28,564.27,82.62,558.66,82.62z M568.74,132.31c3.67,2.9,6.04,7.38,6.04,12.42c0,5.04-2.37,9.51-6.04,12.42V132.31z
				 M548.37,132.93v23.59c-3.24-2.9-5.3-7.1-5.3-11.8C543.07,140.04,545.12,135.84,548.37,132.93z"/>
			<path id="path3901" class="st1" d="M250.82,226.53l8.81,13.35c-21.63,28.72-42.98,23.79-62.47-0.8l8.81-15.22L250.82,226.53z"/>
			<path id="path3903" class="st1" d="M256.16,235.26c-19.01,10.87-40.78,7.98-56.07-2.5"/>
			<path id="path3905" class="st1" d="M223.86,230.54l-2.67,10.94"/>
			<path id="path3907" class="st1" d="M237.08,241.55l-2.27-10.28"/>
			<path id="path3535" class="st3" d="M218.25,230.27c-14.91,10.75-30.08,22.32-47.79,42.18l1.07,12.55l-3.2-4.81l-1.87,2.4
				l-1.6-6.67l-4.54,1.07v-5.61l-7.21-0.53l1.07-2.67h-4.54l13.88-2.4c12.53-15.03,26.45-27.77,41.12-39.25L218.25,230.27z"/>
			<path id="path3538" class="st7" d="M184.61,244.42l2.67,9.88"/>
			<path id="path3540" class="st8" d="M196.42,234.07l2.8,10.81"/>
			<path id="path3542" class="st7" d="M211.04,234.81l-2.67-7.21"/>
			<path id="path3544" class="st7" d="M177.4,264.18l-3.74-8.81"/>
			<path id="path3546" class="st7" d="M170.72,272.72c-1.33-1.33-6.94-7.21-6.94-7.21"/>
			<path id="path3548" class="st3" d="M239.34,229.2c53.4,58.47,76.57,47.69,100.92,32.84l-19.49-0.8
				c-29.17,10.68-54.43-22.3-68.62-34.71L239.34,229.2z"/>
			<path id="path3550" class="st9" d="M246.28,236.41c10.95-4.81,11.48-4.81,11.48-4.81"/>
			<path id="path3552" class="st9" d="M267.64,241.48l-11.75,4.54"/>
			<path id="path3554" class="st9" d="M276.99,249.49l-9.88,6.41"/>
			<path id="path3556" class="st9" d="M287.4,257.77l-8.28,5.61"/>
			<path id="path3558" class="st9" d="M299.15,262.31l-7.48,7.74"/>
			<path id="path3560" class="st9" d="M310.32,263.68l-4.73,9.81"/>
			<path id="path3562" class="st9" d="M321.31,270.32l-0.8-8.28"/>
			<path id="path3601" class="st3" d="M478.83,250.56c3.59-3.35,31.27-27.83,59,4.27c8.33,9.64,22.1,9.2,30.17,5.87h21.09
				c-19.6,11.64-36.82,22.4-65.95-3.74c-16.37-14.69-23.98-5.72-23.98-5.72L478.83,250.56z"/>
			<path id="path3625" class="st3" d="M587.22,250.71c0,0,4.33-0.65,25.01,0c4.76-2.9,10.96-4.22,25.98,6.52
				c12.49,8.93,32.11,29.05,58.15,28.7c17.05-0.23,39.76-10.48,56.75-27.5c7.34-7.36,23.8-35.52,25.63-53.73l-8.1-10.21
				c-2.42,33.38-40.8,86.92-80.9,79.56c-18.26-3.35-49.43-29.47-60.34-33.11l-19.49-0.27C601.85,240.94,593.38,247.21,587.22,250.71
				z"/>
			<path id="path3603" class="st9" d="M496.45,251.63"/>
			<path id="path3605" class="st9" d="M495.92,241.21l0.53,9.35"/>
			<path id="path3607" class="st9" d="M504.99,248.69l1.6-10.95"/>
			<path id="path3609" class="st9" d="M521.81,242.02"/>
			<path id="path3611" class="st9" d="M513.8,250.83l7.48-8.54"/>
			<path id="path3613" class="st9" d="M523.41,257.23l10.15-7.21"/>
			<path id="path3615" class="st9" d="M543.71,258.3l-8.28,6.68"/>
			<path id="path3617" class="st9" d="M549.31,272.19l6.14-9.88"/>
			<path id="path3619" class="st9" d="M564.53,261.77l0.27,11.21"/>
			<path id="path3621" class="st9" d="M575.48,267.91"/>
			<path id="path3623" class="st9" d="M574.68,260.44l0.53,6.94"/>
			<path id="path3629" class="st10" d="M606.45,241.75c0.32-0.08,0.27,3.8,0.27,4.81c0,1.42,0,2.85,0,4.27"/>
			<path id="path3631" class="st10" d="M616.93,240.15l-2.67,8.81"/>
			<path id="path3635" class="st11" d="M629.53,241.89l-5.97,7.26"/>
			<path id="path3637" class="st10" d="M641.16,247.62l-8.01,5.61"/>
			<path id="path3639" class="st10" d="M650.5,253.23l-7.74,6.94"/>
			<path id="path3641" class="st10" d="M660.91,260.71l-9.08,6.14"/>
			<path id="path3645" class="st12" d="M663.16,274.75l8.15-7.49"/>
			<path id="path3647" class="st10" d="M682.81,271.39l-7.21,10.14"/>
			<path id="path3649" class="st10" d="M694.29,275.12"/>
			<path id="path3651" class="st10" d="M688.41,284.47l6.67-9.61"/>
			<path id="path3653" class="st10" d="M707.1,273.52"/>
			<path id="path3655" class="st10" d="M703.63,284.73"/>
			<path id="path3657" class="st10" d="M707.64,272.72l-3.47,12.01"/>
			<path id="path3659" class="st10" d="M722.05,268.18l-0.8,11.48"/>
			<path id="path3661" class="st10" d="M737.8,269.25"/>
			<path id="path3663" class="st10" d="M734.33,259.64l3.63,10.61"/>
			<path id="path3665" class="st13" d="M745.77,249.98l5.23,9.32"/>
			<path id="path3667" class="st10" d="M760.77,246.82l-6.14-9.61"/>
			<path id="path3669" class="st10" d="M768.24,232.14l-6.41-7.48"/>
			<path id="path3673" class="st10" d="M767.97,212.65l7.12,5.03"/>
			<path id="path3853" class="st14" d="M778.24,170.39c6.41,9.57,9.65,14,23.41,26.62c-2.47-0.49-4.55-1.24-6.38-2.16
				c-1.84-0.92-3.43-3.32-4.95-4.45c2.09,3.71,3.57,7.42,4.15,11.14c-2.89-2.71-5.3-4.92-8.68-8.12c2.41,5.72,1.64,7.46,2.27,10.95
				c-7.41-7.01-14.09-14.27-18.5-22.28L778.24,170.39z"/>
			<path id="path3855" class="st15" d="M787.83,181.94l-15.23,1.07"/>
			<path id="path3861" class="st15" d="M794.27,189.73l-14.51,4.75"/>
			<path id="path3865" class="st3" d="M776.6,152.67c3.99-1.96,9.53,5.85,5.47,10.57c-4.53,5.28-10.81,21.99-0.94,37.95
				c3.23,5.22-4.21,10.19-10.76,1.89C760.12,190.08,765.53,158.11,776.6,152.67z"/>
			<path id="path3867" class="st15" d="M771.5,157.38l8.12,8.68"/>
			<path id="path3869" class="st15" d="M775.84,177.02l-8.49-5.1"/>
			<path id="path3871" class="st16" d="M776.38,190.39c-0.81-0.18-10.31-2.38-10.31-2.38"/>
			<path id="path3873" class="st15" d="M779.43,199.11l-11.14-0.57"/>
			<path id="path3485" class="st17" d="M229.74,106.14c-28.3,0-51.77,20.13-56.11,46.44h112.23
				C281.51,126.27,258.03,106.14,229.74,106.14z"/>
			<path id="path3510" class="st18" d="M177.67,139.49c34.58-5.85,71.59-5.81,104.44,1.41c1.89,2.89,2.47,6.44,3.43,9.8
				l-111.07-0.53C174.81,146.61,175.23,143.05,177.67,139.49z"/>
			<path id="path3502" class="st19" d="M138.29,160.59c78.3,16.28,146.52,12.94,180.88-1.6
				C266.22,135.04,173.68,138.98,138.29,160.59z"/>
			<path id="path3514" class="st20" d="M210.51,216.65l-6.68,9.61c16.64,5.17,34.08,5.81,50.73,0.27l-5.87-10.95L210.51,216.65z"/>
			<path id="path3516" class="st20" d="M224.92,230.54l0.53-12.01"/>
			<path id="path3518" class="st20" d="M234,230.54l0.27-11.48"/>
			<path id="path3520" class="st20" d="M243.35,219.59l2.4,9.88"/>
			<path id="path3522" class="st20" d="M213.18,228.93l3.47-11.48"/>
			<path id="path3483" class="st1" d="M173.13,162.99c2.73-8.5,15.11-11.3,56.6-11.68c41.49-0.38,55.54,1.96,57.14,10.35
				c2.28,11.97-8.34,60.07-57.14,60.07C180.67,221.73,169.68,173.71,173.13,162.99z"/>
			<path id="path3504" class="st21" d="M222.25,182.21c0,9.88-8.01,17.89-17.89,17.89c-9.88,0-17.89-8.01-17.89-17.89
				c0-9.88,8.01-17.89,17.89-17.89C214.24,164.32,222.25,172.33,222.25,182.21z"/>
			<path id="path3506" class="st21" d="M272.98,182.21c0,9.88-8.01,17.89-17.89,17.89c-9.88,0-17.89-8.01-17.89-17.89
				c0-9.88,8.01-17.89,17.89-17.89C264.97,164.32,272.98,172.33,272.98,182.21z"/>
			<path id="path3508" class="st21" d="M236.94,204.64c0,3.98-3.23,7.21-7.21,7.21c-3.98,0-7.21-3.23-7.21-7.21
				c0-3.98,3.23-7.21,7.21-7.21C233.71,197.43,236.94,200.66,236.94,204.64L236.94,204.64z"/>
		</g>
	</g>
</g>
<text transform="matrix(1 0 0 1 664.9622 215.605)" class="st22 st23">TM</text>
</svg>
